<svg width="64" height="64" viewBox="0 0 64 64" fill="none" xmlns="http://www.w3.org/2000/svg">
<path d="M60.4999 18.8C54.5999 12.3 43.9999 8.5 31.9999 8.5C19.9999 8.5 9.39994 12.3 3.49994 18.8C2.99994 19.4 2.79994 20.1 3.09994 20.9C3.29994 21.4 3.39994 22.3 3.49994 23.4C3.99994 27.4 4.89994 34.2 9.49994 39C9.99994 39.5 10.5999 39.7 11.2999 39.6C11.9999 39.5 12.4999 39.1 12.7999 38.5C13.2999 37.4 14.0999 34.7 14.9999 30.9C15.2999 35 16.3999 39.9 18.8999 45.4C19.0999 45.8 23.1999 54.5 31.7999 55.5H31.8999H31.9999C40.5999 54.5 44.6999 45.8 44.8999 45.4C47.4999 39.9 48.5999 35 48.7999 30.9C49.7999 34.7 50.4999 37.5 50.9999 38.5C51.2999 39.1 51.8999 39.5 52.4999 39.6C53.1999 39.7 53.7999 39.5 54.2999 39C58.8999 34.2 59.7999 27.4 60.2999 23.4C60.3999 22.3 60.5999 21.4 60.6999 20.9C61.0999 20.2 60.9999 19.4 60.4999 18.8ZM58.4999 23.1C57.9999 26.9 57.0999 33.2 52.9999 37.6C52.4999 36.7 51.7999 33.7 50.8999 30.2C50.4999 28.7 50.0999 27 49.5999 25.3C47.1999 16.2 46.5999 16.2 45.6999 16.2C45.1999 16.2 44.7999 16.6 44.6999 17.1C44.5999 17.3 44.6999 17.6 44.7999 17.8C44.8999 17.9 50.6999 28.6 43.1999 44.5C43.1999 44.6 39.3999 52.6 31.9999 53.4C24.5999 52.5 20.7999 44.6 20.7999 44.5C13.3999 28.6 19.1999 17.9 19.1999 17.8C19.2999 17.6 19.3999 17.3 19.2999 17.1C19.1999 16.6 18.7999 16.3 18.2999 16.2H18.1999C17.3999 16.2 16.7999 16.5 14.3999 25.3C13.8999 27 13.4999 28.7 13.0999 30.2C12.1999 33.7 11.3999 36.7 10.8999 37.6C6.79994 33.2 5.89994 26.9 5.39994 23.1C5.19994 21.9 5.09994 20.9 4.89994 20.3V20.2C10.3999 14.1 20.4999 10.5 31.8999 10.5C43.2999 10.5 53.3999 14.1 58.8999 20.2V20.3C58.7999 20.9 58.6999 21.9 58.4999 23.1Z" fill="black"/>
<path d="M23.0004 24.7002C21.0004 24.7002 19.4004 26.4002 19.4004 28.4002C19.4004 30.4002 21.0004 32.1002 23.0004 32.1002C25.0004 32.1002 26.6004 30.4002 26.6004 28.4002C26.6004 26.4002 25.0004 24.7002 23.0004 24.7002ZM23.0004 30.1002C22.1004 30.1002 21.4004 29.3002 21.4004 28.4002C21.4004 27.5002 22.1004 26.7002 23.0004 26.7002C23.9004 26.7002 24.6004 27.5002 24.6004 28.4002C24.6004 29.3002 23.9004 30.1002 23.0004 30.1002ZM40.6004 24.7002C38.6004 24.7002 37.0004 26.4002 37.0004 28.4002C37.0004 30.4002 38.6004 32.1002 40.6004 32.1002C42.6004 32.1002 44.2004 30.4002 44.2004 28.4002C44.2004 26.4002 42.6004 24.7002 40.6004 24.7002ZM40.6004 30.1002C39.7004 30.1002 39.0004 29.3002 39.0004 28.4002C39.0004 27.5002 39.7004 26.7002 40.6004 26.7002C41.5004 26.7002 42.2004 27.5002 42.2004 28.4002C42.2004 29.3002 41.5004 30.1002 40.6004 30.1002ZM36.4004 49.2002C34.9004 49.6002 33.9004 49.6002 33.4004 49.2002C33.2004 49.0002 33.0004 48.7002 33.0004 48.4002C33.0004 48.4002 33.0004 48.4002 33.0004 48.3002C35.2004 47.8002 36.9004 45.7002 36.9004 43.3002C36.9004 41.8002 36.3004 39.4002 31.9004 39.4002C27.5004 39.4002 26.9004 41.9002 26.9004 43.3002C26.9004 45.8002 28.6004 47.8002 30.9004 48.3002C30.9004 48.6002 30.7004 48.9002 30.5004 49.1002C30.0004 49.5002 28.9004 49.6002 27.5004 49.1002C27.0004 48.9002 26.4004 49.3002 26.3004 49.8002C26.1004 50.3002 26.5004 50.9002 27.0004 51.0002C27.9004 51.3002 28.7004 51.4002 29.4004 51.4002C30.5004 51.4002 31.3004 51.1002 31.9004 50.5002C31.9004 50.5002 31.9004 50.5002 32.0004 50.4002C32.0004 50.4002 32.0004 50.4002 32.1004 50.5002C33.2004 51.5002 34.8004 51.6002 37.0004 51.0002C37.5004 50.8002 37.8004 50.3002 37.7004 49.8002C37.5004 49.4002 37.0004 49.1002 36.4004 49.2002ZM29.0004 43.3002C29.0004 42.6002 29.0004 41.4002 32.0004 41.4002C35.0004 41.4002 35.0004 42.6002 35.0004 43.3002C35.0004 45.0002 33.7004 46.4002 32.0004 46.4002C30.3004 46.4002 29.0004 45.0002 29.0004 43.3002Z" fill="black"/>
</svg>
