<svg width="60" height="60" viewBox="0 0 60 60" fill="none" xmlns="http://www.w3.org/2000/svg">
<path d="M47.5 10H42.5C41.837 10 41.2011 10.2634 40.7322 10.7322C40.2634 11.2011 40 11.837 40 12.5C40 13.163 40.2634 13.7989 40.7322 14.2678C41.2011 14.7366 41.837 15 42.5 15H45V45H42.5C41.837 45 41.2011 45.2634 40.7322 45.7322C40.2634 46.2011 40 46.837 40 47.5C40 48.163 40.2634 48.7989 40.7322 49.2678C41.2011 49.7366 41.837 50 42.5 50H47.5C48.163 50 48.7989 49.7366 49.2678 49.2678C49.7366 48.7989 50 48.163 50 47.5V12.5C50 11.837 49.7366 11.2011 49.2678 10.7322C48.7989 10.2634 48.163 10 47.5 10ZM29.5 18.5C29.1022 17.9696 28.5099 17.6189 27.8536 17.5251C27.1972 17.4314 26.5304 17.6022 26 18C25.4696 18.3978 25.1189 18.9901 25.0251 19.6464C24.9314 20.3028 25.1022 20.9696 25.5 21.5L30 27.5H10C9.33696 27.5 8.70107 27.7634 8.23223 28.2322C7.76339 28.7011 7.5 29.337 7.5 30C7.5 30.663 7.76339 31.2989 8.23223 31.7678C8.70107 32.2366 9.33696 32.5 10 32.5H30.225L25.925 38.6C25.7332 38.8687 25.5964 39.1727 25.5227 39.4946C25.4491 39.8164 25.4398 40.1496 25.4956 40.475C25.5514 40.8004 25.6711 41.1116 25.8478 41.3905C26.0244 41.6694 26.2546 41.9105 26.525 42.1C26.95 42.3967 27.4567 42.5539 27.975 42.55C28.3716 42.5482 28.7621 42.452 29.1142 42.2694C29.4663 42.0868 29.77 41.8231 30 41.5L37.05 31.5C37.3629 31.0718 37.5315 30.5553 37.5315 30.025C37.5315 29.4947 37.3629 28.9782 37.05 28.55L29.5 18.5Z" fill="white"/>
</svg>
