<svg width="50" height="50" viewBox="0 0 50 50" fill="none" xmlns="http://www.w3.org/2000/svg">
<path d="M28.663 15.3916C28.4577 15.3916 28.2516 15.3962 28.05 15.4052L28.1022 16.5759C28.1215 16.575 28.1411 16.5747 28.1604 16.5739V19.6962H29.3323V16.5816C35.6902 16.9205 40.7955 22.0574 41.0845 28.4284H38.0645V29.6003H41.0831C40.7787 35.9565 35.6798 41.0769 29.3323 41.4151V38.3325H28.1604V41.4225C21.7772 41.1673 16.6173 36.0782 16.2498 29.7241L18.4083 31.8825L19.2368 31.054L15.6878 27.505L12.1387 31.054L12.9672 31.8827L15.0785 29.7715C15.4807 36.916 21.4196 42.6053 28.663 42.6053C36.1657 42.6053 42.2698 36.5014 42.2698 28.9984C42.2698 21.4956 36.1657 15.3916 28.663 15.3916Z" fill="black"/>
<path d="M28.747 31.3173C29.7826 31.3173 30.6593 30.6247 30.9393 29.6785H36.3266V28.5066H30.9719C30.7792 27.6894 30.1474 27.0398 29.3396 26.823V21.8808H28.1677V26.8192C27.1865 27.0764 26.4604 27.9703 26.4604 29.031C26.4604 30.2917 27.4862 31.3173 28.747 31.3173ZM28.1678 28.0807C28.3367 27.9771 28.5348 27.9164 28.7471 27.9164C28.9648 27.9164 29.1679 27.9801 29.3396 28.0887C29.5031 28.1919 29.6384 28.3356 29.7299 28.5065C29.8136 28.663 29.8615 28.8415 29.8615 29.0309C29.8615 29.2726 29.7833 29.4957 29.6522 29.6784C29.4499 29.9607 29.1199 30.1453 28.747 30.1453C28.1324 30.1453 27.6323 29.6454 27.6323 29.0309C27.6323 28.6286 27.8473 28.2766 28.1678 28.0807ZM20.5759 26.1708C22.9775 26.1708 24.9314 24.217 24.9314 21.8153C24.9314 20.4004 24.235 19.0672 23.0685 18.2491C22.2107 17.6476 21.4364 16.819 20.767 15.7868C19.9568 14.5377 18.5904 13.7919 17.1117 13.7919C15.633 13.7919 14.2666 14.5377 13.4564 15.7868C12.7871 16.8189 12.0127 17.6475 11.1549 18.2491C9.98838 19.0672 9.29189 20.4003 9.29189 21.8153C9.29189 24.217 11.2458 26.1708 13.6475 26.1708H20.5759ZM10.4637 21.8153C10.4637 20.782 10.9736 19.8075 11.8277 19.2086C12.8093 18.5201 13.6881 17.5834 14.4396 16.4245C15.0328 15.51 16.0317 14.9639 17.1116 14.9639C18.1915 14.9639 19.1904 15.51 19.7836 16.4245C20.5353 17.5835 21.414 18.5202 22.3954 19.2086C23.2495 19.8076 23.7595 20.782 23.7595 21.8153C23.7595 23.5708 22.3313 24.999 20.5758 24.999H13.6473C11.8919 24.999 10.4637 23.5708 10.4637 21.8153ZM11.7469 14.9863V13.3514C11.7469 12.244 10.8459 11.3432 9.73867 11.3432C8.63145 11.3432 7.73047 12.2441 7.73047 13.3514V14.9863C7.73047 16.0937 8.63145 16.9945 9.73867 16.9945C10.8459 16.9945 11.7469 16.0937 11.7469 14.9863ZM8.90225 14.9863V13.3514C8.90225 12.8901 9.27744 12.515 9.73857 12.515C10.1997 12.515 10.5749 12.8902 10.5749 13.3514V14.9863C10.5749 15.4476 10.1997 15.8227 9.73857 15.8227C9.27744 15.8227 8.90225 15.4476 8.90225 14.9863ZM24.4051 16.9946C25.5123 16.9946 26.4134 16.0937 26.4134 14.9864V13.3515C26.4134 12.2441 25.5123 11.3433 24.4051 11.3433C23.2978 11.3433 22.3969 12.2442 22.3969 13.3515V14.9864C22.3968 16.0937 23.2978 16.9946 24.4051 16.9946ZM23.5687 13.3514C23.5687 12.8901 23.9438 12.515 24.405 12.515C24.8661 12.515 25.2414 12.8902 25.2414 13.3514V14.9863C25.2414 15.4476 24.8662 15.8227 24.405 15.8227C23.9438 15.8227 23.5687 15.4475 23.5687 14.9863V13.3514ZM14.3642 13.0459C15.4715 13.0459 16.3724 12.1449 16.3724 11.0377V9.40273C16.3724 8.29541 15.4714 7.39453 14.3642 7.39453C13.2567 7.39453 12.3559 8.29551 12.3559 9.40273V11.0377C12.3559 12.145 13.2568 13.0459 14.3642 13.0459ZM13.5277 9.40273C13.5277 8.9415 13.903 8.56641 14.3642 8.56641C14.8253 8.56641 15.2005 8.9416 15.2005 9.40273V11.0377C15.2005 11.4989 14.8253 11.874 14.3642 11.874C13.903 11.874 13.5277 11.4988 13.5277 11.0377V9.40273ZM19.7795 13.0459C20.8869 13.0459 21.7878 12.1449 21.7878 11.0377V9.40273C21.7878 8.29541 20.8868 7.39453 19.7795 7.39453C18.6722 7.39453 17.7713 8.29551 17.7713 9.40273V11.0377C17.7712 12.145 18.6722 13.0459 19.7795 13.0459ZM18.9431 9.40273C18.9431 8.9415 19.3183 8.56641 19.7794 8.56641C20.2405 8.56641 20.6158 8.9416 20.6158 9.40273V11.0377C20.6158 11.4989 20.2405 11.874 19.7794 11.874C19.3183 11.874 18.9431 11.4988 18.9431 11.0377V9.40273Z" fill="black"/>
</svg>
